# xmcd
#
# Track frame offsets: 
#        150
#        18247
#        40490
#        54113
#        65772
#        90357
#        110197
#        121501
#        137456
#        156351
#        174410
#        197049
#        218981
#        236537
#
# Disc length: 3341 seconds
#
# Revision: 4
# Processed by: cddbd v1.5.2PL0 Copyright (c) Steve Scherf et al.
# Submitted via: ExactAudioCopy v1.3
#
DISCID=b90d0b0e
DTITLE=Earl Klugh - Naked Guitar
DYEAR=2005
DGENRE=Blues
TTITLE0=The Night Has Thousand Eyes
TTITLE1=Baubles, Bangles And Beads
TTITLE2=Serenata
TTITLE3=Alice In Wonderland
TTITLE4=In The Moonlight
TTITLE5=The Summer Knows
TTITLE6=Ding Dong The Witch Is Dead
TTITLE7=Who Can I Turn To
TTITLE8=On A Clear Day
TTITLE9=Be My Love
TTITLE10=I Want To Hold Your Hand
TTITLE11=All The Things You Are
TTITLE12=Moon River
TTITLE13=Angelina
EXTD=Earl Klugh (b.1954): guitar\nRecorded by Bert Elliot at Studio 86
EXTD=1, Atlanta US-GA.\nMixed by Bert Elliot at Bert Elliot Studios, A
EXTD=tlanta US-GA.\nMastered by Alex Lowe at Red Tuxedo Studios, Atlan
EXTD=ta US-GA.\nProduced by Earl Klugh.\nCD: Koch KOC-CD-9949 (2005-08
EXTD=09), UPC 099923994923, BMG D162050.
EXTT0=(Jerry Brainin//Buddy Bernier)
EXTT1=(Chet Forrest/Robert Craig Wright/Alexander Borodin)
EXTT2=(Leroy Anderson//Mitchell Parish)
EXTT3=(Sammy Fain//Bob Hilliard)
EXTT4=(Michel Legrand//Alan Bergman/Marilyn Bergman)
EXTT5=(Michel Legrand//Alan Bergman/Marilyn Bergman)
EXTT6=(Harold Arlen//Yip Harburg]\nAKA "Ding-Dong! The Witch Is Dead".
EXTT7=(Leslie Bricusse/Anthony Newley]\nAKA "Who Can I Turn To (When N
EXTT7=obody Needs Me)".
EXTT8=(Burton Lane//Alan Jay Lerner]\nAKA "On a Clear Day (You Can See
EXTT8=Forever)".
EXTT9=(Nikolaus Brodszky//Sammy Cahn)
EXTT10=(John Lennon/Paul McCartney)
EXTT11=(Jerome Kern//Oscar Hammerstein II)
EXTT12=(Henry Mancini//Johnny Mercer)
EXTT13=(Earl Klugh)
PLAYORDER=
